<?xml version="1.0" encoding="UTF-8"?>
<svg id="Layer_2" data-name="Layer 2" xmlns="http://www.w3.org/2000/svg" xmlns:xlink="http://www.w3.org/1999/xlink" viewBox="0 0 61.03 107.49">
  <defs>
    <style>
      .cls-1, .cls-2, .cls-3, .cls-4, .cls-5, .cls-6, .cls-7 {
        stroke: #231f20;
        stroke-miterlimit: 10;
        stroke-width: 2px;
      }

      .cls-1, .cls-6 {
        fill: none;
      }

      .cls-2, .cls-8 {
        fill: #ba9b80;
      }

      .cls-3, .cls-4 {
        fill: #ba9b82;
      }

      .cls-4, .cls-6 {
        stroke-linecap: round;
      }

      .cls-5 {
        fill: #83a6bf;
      }

      .cls-9 {
        fill: #846d5b;
      }

      .cls-10, .cls-7 {
        fill: #94808c;
      }

      .cls-11 {
        clip-path: url(#clippath);
      }
    </style>
    <clipPath id="clippath">
      <path id="G-2" data-name="G" class="cls-2" d="M49.7,5.91c1.6,3.8,1.55,8.63,1.71,12.67.33,8.23.09,16.46.04,24.69-.04,6.07.57,14.57-4.5,19.02-2.28,2-3.52,2.33-7.46,3.16-4.57.96-8.01.83-11.11.7-5.34-.23-6.48-1-6.98-1.39-1.81-1.4-2.5-3.45-3-5-.7-2.17-1.04-4.54-.42-6.74.62-2.2,2.36-4.16,4.57-4.5.9-.14,2.65-.02,3.56-.02,4.42,0,6.11-3.61,6.31-7.57.12-2.55.2-8.92-3.63-9.01-7.37-.16-14.76-.24-22.12-.57-1.53-.87-3.59-5.96-4.28-7.46-1.3-2.86-2.27-6.05-.15-8.74C8.05,7.79,20.5,2.99,29.71,4.09c2.8.34,5.57,1.18,8.01,2.63,1.41-1.86,3.92-3.66,6.23-3.69,1.91-.03,4.18.24,5.3,2.01.17.27.32.57.45.87Z"/>
    </clipPath>
  </defs>
  <g id="Testing_Artboard_3_" data-name="Testing [Artboard 3]">
    <g id="Last_Initial" data-name="Last Initial">
      <ellipse id="S_Shadow" data-name="S Shadow" class="cls-10" cx="25.6" cy="99.32" rx="21.18" ry="8.17"/>
      <path id="S" class="cls-5" d="M13.08,31.51c-1,.55-2.4,1.39-3.96,2.57-3,2.26-4.93,5.55-5.72,9.2-1.22,5.65-.96,12.23-.25,17.94.53,4.28,1.68,8.28,4.65,11.55.53.59,1.1,1.16,1.75,1.61,2.29,1.58,5.66,1.78,8.38,1.63,2.79-.15,5.66-1.12,8.42-.23,3.48,1.12,5.32,5.42,2.6,8.32-2.06,2.19-5.55,1.68-8.24,1.39-2.62-.29-7.08-.77-11.01.98-2.79,1.25-5.01,3.84-4.94,7.02.11,4.65,4.83,7.32,8.8,8.42,3.84,1.06,8.22,1.38,12.19,1.47,4.17.1,8.37-.31,12.36-1.51,3.68-1.11,6.82-3.22,8.68-6.64,3.61-6.64,3.26-15.42,1.85-22.62-.69-3.52-1.95-8.46-5.51-10.27-2.58.07-5.25.32-7.83.39-3.31.09-6.71.17-9.83-.82-1.33-.42-2.61-1.07-3.47-2.07-.97-1.13-1.32-2.61-1.42-4.04-.2-2.67-.6-5.77,3.25-6s4.78-1.29,6.98-2.04c2-.68,3.4-2.42,3.95-4.29s.37-3.85-.04-5.75c-.27-1.25-.75-4.56-1.58-5.59-.46-.57-1.65-1.69-8.94-2.31-2.66-.23-6.67,1.14-11.13,1.67Z"/>
    </g>
    <g id="First_Initial" data-name="First Initial">
      <path id="Back_Ear" data-name="Back Ear" class="cls-4" d="M34.81,5.12c-.74-2.13-2.79-3.77-5.09-4.08s-3.82,1.22-6.05,2.58l5.57,4.27,5.57-2.77Z"/>
      <g>
        <path id="G" class="cls-8" d="M49.7,5.91c1.6,3.8,1.55,8.63,1.71,12.67.33,8.23.09,16.46.04,24.69-.04,6.07.57,14.57-4.5,19.02-2.28,2-3.52,2.33-7.46,3.16-4.57.96-8.01.83-11.11.7-5.34-.23-6.48-1-6.98-1.39-1.81-1.4-2.5-3.45-3-5-.7-2.17-1.04-4.54-.42-6.74.62-2.2,2.36-4.16,4.57-4.5.9-.14,2.65-.02,3.56-.02,4.42,0,6.11-3.61,6.31-7.57.12-2.55.2-8.92-3.63-9.01-7.37-.16-14.76-.24-22.12-.57-1.53-.87-3.59-5.96-4.28-7.46-1.3-2.86-2.27-6.05-.15-8.74C8.05,7.79,20.5,2.99,29.71,4.09c2.8.34,5.57,1.18,8.01,2.63,1.41-1.86,3.92-3.66,6.23-3.69,1.91-.03,4.18.24,5.3,2.01.17.27.32.57.45.87Z"/>
        <g class="cls-11">
          <path id="Snout" class="cls-9" d="M9.16,7.29S-3.15,11.83,2,22.73c.15.32.3.63.44.94,4.67,9.89,4.15,8.59,9.06,8.71s2.28-19.65-2.34-25.09Z"/>
        </g>
        <path id="G-3" data-name="G" class="cls-1" d="M49.7,5.91c1.6,3.8,1.55,8.63,1.71,12.67.33,8.23.09,16.46.04,24.69-.04,6.07.57,14.57-4.5,19.02-2.28,2-3.52,2.33-7.46,3.16-4.57.96-8.01.83-11.11.7-5.34-.23-6.48-1-6.98-1.39-1.81-1.4-2.5-3.45-3-5-.7-2.17-1.04-4.54-.42-6.74.62-2.2,2.36-4.16,4.57-4.5.9-.14,2.65-.02,3.56-.02,4.42,0,6.11-3.61,6.31-7.57.12-2.55.2-8.92-3.63-9.01-7.37-.16-14.76-.24-22.12-.57-1.53-.87-3.59-5.96-4.28-7.46-1.3-2.86-2.27-6.05-.15-8.74C8.05,7.79,20.5,2.99,29.71,4.09c2.8.34,5.57,1.18,8.01,2.63,1.41-1.86,3.92-3.66,6.23-3.69,1.91-.03,4.18.24,5.3,2.01.17.27.32.57.45.87Z"/>
      </g>
      <path id="G_Fragment" data-name="G Fragment" class="cls-3" d="M12.85,38.78c-.4-.44-.92-.72-1.61-.73-.51,0-.98.26-1.35.61-2.03,1.95-2.99,5.33-3.36,8.02-.42,3-.21,6.05.18,9.04.23,1.74.37,3.64,1.53,5.06,1.76,2.15,4.45,2.85,5.5,2.51.23-.08.46-.18.64-.35.57-.56.34-1.54.12-2.32-.57-2.08-.71-4.29-.42-6.43.26-1.93,1.54-3.96,1.44-5.89-.08-1.53-.94-3.13-1.18-4.68-.2-1.27-.4-3.64-1.49-4.84Z"/>
      <path id="Ear_Canal" data-name="Ear Canal" class="cls-7" d="M46.27,6.17c.53.28.94.7,1.1,1.3.5,1.86-2.66,1.66-3.69,1.46-.6-.12-2.76-.7-2.82-1.46s1.78-1.44,2.37-1.59c.89-.23,2.13-.18,3.04.3Z"/>
      <path id="Eye_Smile" data-name="Eye Smile" class="cls-6" d="M27.74,18.93c.5-.27,1.1-.31,1.67-.33,1.11-.05,2.28-.08,3.24.45.61.34,1.07.87,1.52,1.39"/>
      <path id="Nostril" class="cls-6" d="M7.58,19.79c-.09.88-.42,1.73-.94,2.45"/>
      <path id="Period" class="cls-5" d="M58.81,66.38c-1.62,1.57-4.25,1.57-5.88,0s-1.62-4.12,0-5.69,4.25-1.57,5.88,0,1.62,4.12,0,5.69Z"/>
    </g>
  </g>
</svg>